<?xml version="1.0" encoding="UTF-8" standalone="no"?>
<svg
   xmlns="http://www.w3.org/2000/svg"
   width="100mm"
   height="70mm"
   viewBox="0 0 100 70"
   version="1.1"
   id="svg1539">
  <defs
     id="defs1535" />
  <g
     id="layer1">
    <g
       id="g988-06-18-8"
       opacity="1"
       style="clip-rule:evenodd;fill-opacity:1;fill-rule:evenodd;stroke-linecap:round;stroke-linejoin:round"
       transform="matrix(1.4614488,0,0,1.4614488,-487.98451,-188.77185)">
      <path
         id="path978-5-5-5"
         style="fill-opacity:1;stroke-width:3.83709"
         d="m 1783.8809,181.98047 c -29.1696,0 -52.8125,23.64876 -52.8125,52.81445 -21.8062,0 -39.4844,17.67626 -39.4844,39.48242 0,21.80617 17.6782,39.48438 39.4844,39.48438 1.4397,0 2.8599,-0.0822 4.2597,-0.23242 -0.1005,0.0741 -0.2088,0.16021 -0.2773,0.19336 l 169.7051,-0.20899 c 1.7027,0.30296 3.4523,0.47071 5.2421,0.47071 16.4228,0 29.7383,-13.31562 29.7383,-29.74219 0,-16.42657 -13.3155,-29.74024 -29.7383,-29.74024 -5.0903,0 -9.8792,1.28159 -14.0683,3.53516 -2.4874,-24.85622 -23.4637,-44.26563 -48.9785,-44.26563 -4.7954,0 -9.4242,0.69774 -13.8067,1.97657 -7.6443,-19.75148 -26.8126,-33.76758 -49.2636,-33.76758 z m -48.8301,131.74219 h -0.1992 c 0.025,0.0519 0.093,0.0512 0.1992,0 z"
         transform="matrix(0.26061438,0,0,0.26061438,-105.04515,86.457201)" />
    </g>
  </g>
</svg>
