<?xml version="1.0" encoding="UTF-8" standalone="no"?>
<svg
   xmlns="http://www.w3.org/2000/svg"
   width="100mm"
   height="70mm"
   viewBox="0 0 100 70"
   version="1.1"
   id="svg1539">
  <defs
     id="defs1535" />
  <g
     id="layer1">
    <g
       id="g976-7-3-2"
       opacity="1"
       transform="matrix(1.4376194,0,0,1.4376194,-688.53262,-177.52369)">
      <path
         id="path968-6-9-2"
         d="m 2473.4785,234.18164 c -31.6186,0 -57.5293,24.36268 -60.0273,55.33789 -5.5937,-3.29858 -12.1105,-5.19922 -19.0742,-5.19922 -20.774,0 -37.6153,16.84125 -37.6153,37.61524 0,20.77398 16.8413,37.61523 37.6153,37.61523 3.7431,0 7.3553,-0.55427 10.7675,-1.57226 l 120.4356,0.23828 c 3.6804,0.864 7.511,1.33398 11.4551,1.33398 27.5848,0 49.9511,-22.36252 49.9511,-49.95117 0,-27.58482 -22.3663,-49.95117 -49.9511,-49.95117 -4.5621,0 -8.9751,0.62196 -13.1739,1.76758 -10.7639,-16.39789 -29.3039,-27.23438 -50.3828,-27.23438 z"
         transform="matrix(0.26061438,0,0,0.26061438,-131.63306,69.285835)" />
    </g>
  </g>
</svg>
