<?xml version="1.0" encoding="UTF-8" standalone="no"?>
<svg
   xmlns="http://www.w3.org/2000/svg"
   width="100mm"
   height="70mm"
   viewBox="0 0 100 70"
   version="1.1"
   id="svg1539">
  <defs
     id="defs1535" />
  <g
     id="layer1">
    <g
       id="g966-9-3-8"
       opacity="1"
       style="clip-rule:evenodd;fill-opacity:1;fill-rule:evenodd;stroke-linecap:round;stroke-linejoin:round"
       transform="matrix(1.4692327,0,0,1.4692327,-603.19155,-185.87336)">
      <path
         id="path954-5-19-3"
         style="fill-opacity:1;stroke-width:3.83709"
         d="m 2211.7461,234.18164 c -20.4884,0 -37.8768,13.22121 -44.1367,31.5918 -5.0852,-3.14303 -11.0766,-4.96289 -17.4942,-4.96289 -18.3988,0 -33.3164,14.91569 -33.3164,33.31836 0,3.62083 0.5844,7.10321 1.6524,10.36718 -16.4546,2.03351 -29.1953,16.05199 -29.1953,33.05664 0,18.40267 14.9176,33.31836 33.3203,33.31836 h 172.8144 c 15.1297,0 27.3946,-12.26483 27.3946,-27.39062 0,-13.12715 -9.2397,-24.09156 -21.5704,-26.76172 0.066,-0.85347 0.1094,-1.71373 0.1094,-2.58398 0,-18.40267 -14.9196,-33.31641 -33.3222,-33.31641 -3.3597,0 -6.6006,0.50305 -9.6582,1.42773 0.014,-0.47561 0.035,-0.94864 0.035,-1.42773 0,-25.75453 -20.8783,-46.63672 -46.6328,-46.63672 z"
         transform="matrix(0.26061438,0,0,0.26061438,-131.63306,69.285835)" />
    </g>
  </g>
</svg>
