<?xml version="1.0" encoding="UTF-8" standalone="no"?>
<svg
   xmlns="http://www.w3.org/2000/svg"
   width="80mm"
   height="110mm"
   viewBox="0 0 80 110"
   version="1.1"
   id="svg1703">
  <defs
     id="defs1699" />
  <g
     id="g2651"
     transform="matrix(1.7837095,0,0,1.7837095,-221.64876,-82.841734)">
    <path
       id="path898-7-2-99-9-8"
       style="fill:#d4df6a;fill-opacity:1;stroke:none;stroke-width:0.264583px;stroke-linecap:butt;stroke-linejoin:miter;stroke-opacity:1"
       d="m 138.13928,92.496237 c -13.27981,0 -13.89256,10.909613 -13.87616,14.849623 l 0.008,0.76481 h 0.003 44.77403 0.003 c 0,0 0.008,-0.3052 0.008,-0.76481 0.0164,-3.94001 -0.59686,-14.849623 -13.87669,-14.849623 -2.86606,0 -5.69333,0.0306 -8.52144,0.0605 -2.8281,-0.0299 -5.65536,-0.0605 -8.52143,-0.0605 z" />
    <ellipse
       style="fill:#f5c88a;fill-opacity:1;stroke-width:5.30315;stroke-linecap:round;stroke-linejoin:round;stroke-miterlimit:10"
       id="path876-4-4-6-93-7-7"
       cx="124.40034"
       cy="82.277687"
       rx="3.1799662"
       ry="4.6862159"
       transform="matrix(0.99866142,-0.05172389,0.1311757,0.99135914,0,0)" />
    <ellipse
       transform="matrix(-0.99866142,-0.05172389,-0.1311757,0.99135914,0,0)"
       ry="4.6862159"
       rx="3.1799662"
       cy="67.041245"
       cx="-167.62762"
       id="path876-4-8-3-3-5"
       style="fill:#f5c88a;fill-opacity:1;stroke-width:5.30315;stroke-linecap:round;stroke-linejoin:round;stroke-miterlimit:10" />
    <path
       id="path896-3-9-7-1-9"
       style="fill:#e8bb78;fill-opacity:1;stroke:none;stroke-width:0.264583px;stroke-linecap:butt;stroke-linejoin:miter;stroke-opacity:1"
       d="m 140.73787,86.43302 c 0,0 0.0114,0.205931 0.019,0.320411 l -0.123,0.003 c 0,0 0.15936,1.306506 0.0791,2.646356 -0.0937,0.87413 -0.28983,1.73699 -0.678,2.26703 -0.38253,0.5224 -1.75749,0.82786 -1.75749,0.82786 0,0 0.005,0.0808 0.005,0.11628 -5e-5,0 -0.004,0 -0.004,0 0,0 -0.29168,5.35379 8.3199,5.35146 0.0214,0 0.0408,-0.003 0.062,-0.003 0.0212,8e-5 0.0406,0.003 0.062,0.003 8.61157,0.003 8.3199,-5.35146 8.3199,-5.35146 0,0 -0.004,0 -0.004,0 0,-0.0355 0.005,-0.11628 0.005,-0.11628 0,0 -1.37444,-0.30546 -1.75697,-0.82786 -0.38709,-0.52858 -0.58348,-1.38816 -0.67746,-2.2598 -0.0813,-1.34237 0.0786,-2.653586 0.0786,-2.653586 l -0.12301,-0.003 c 0.008,-0.11448 0.019,-0.320411 0.019,-0.320411 l -5.92264,0.160211 z" />
    <rect
       style="fill:#f7d4a3;fill-opacity:1;stroke:none;stroke-width:6.44692;stroke-linecap:round;stroke-linejoin:round;stroke-miterlimit:4;stroke-dasharray:none;stroke-opacity:1"
       id="rect1019-1-7-0-5"
       width="25.697834"
       height="33.296532"
       x="133.96866"
       y="56.213726"
       ry="12.406159" />
    <path
       id="path1906"
       d="m 146.70426,58.291819 c -2.14954,3.28068 -6.26503,6.03713 -10.65455,7.52582 l -1.52207,6.25744 c 0,0 -1.04122,-1.53243 -1.01473,-3.63609 0.0763,-6.06307 1.99996,-14.20603 12.93765,-14.20603 10.83074,0 14.45972,7.12201 14.45972,13.78323 0,2.43632 -1.35295,3.55153 -1.35295,3.55153 l -1.01473,-3.55153 c -4.19966,-2.8244 -8.96504,-6.39697 -11.83834,-9.72437 z"
       style="fill:#ebebeb;fill-opacity:1;stroke:none;stroke-width:0.264583px;stroke-linecap:butt;stroke-linejoin:miter;stroke-opacity:1" />
    <circle
       r="4.6348214"
       cy="53.417461"
       cx="146.87253"
       id="path1908"
       style="fill:#ebebeb;fill-opacity:1;stroke:none;stroke-width:0.868884;stroke-linecap:round;stroke-linejoin:round;stroke-miterlimit:4;stroke-dasharray:none;stroke-opacity:1" />
    <path
       id="path1978"
       d="m 139.68251,92.052297 c 7.0861,5.63752 9.98557,2.90084 13.71185,-0.2084 1.16442,-0.041 3.81928,0.73054 4.83116,0.82304 -8.80281,7.959943 -13.55701,8.027303 -23.08358,0.0277 z"
       style="fill:#ffffff;fill-opacity:1;stroke:none;stroke-width:0.264583px;stroke-linecap:butt;stroke-linejoin:miter;stroke-opacity:1" />
    <circle
       style="fill:#ffffff;fill-opacity:1;stroke:none;stroke-width:0.963999;stroke-linecap:round;stroke-linejoin:round;stroke-miterlimit:4;stroke-dasharray:none;stroke-opacity:1"
       id="path1980-9"
       cx="152.20059"
       cy="98.457672"
       r="3.0083802" />
    <circle
       style="fill:#ffffff;fill-opacity:1;stroke:none;stroke-width:0.963999;stroke-linecap:round;stroke-linejoin:round;stroke-miterlimit:4;stroke-dasharray:none;stroke-opacity:1"
       id="path1980-3"
       cx="156.608"
       cy="96.100319"
       r="3.0083802" />
    <circle
       style="fill:#ffffff;fill-opacity:1;stroke:none;stroke-width:0.963999;stroke-linecap:round;stroke-linejoin:round;stroke-miterlimit:4;stroke-dasharray:none;stroke-opacity:1"
       id="path1980"
       cx="146.78879"
       cy="99.810646"
       r="3.0083802" />
    <circle
       style="fill:#ffffff;fill-opacity:1;stroke:none;stroke-width:0.963999;stroke-linecap:round;stroke-linejoin:round;stroke-miterlimit:4;stroke-dasharray:none;stroke-opacity:1"
       id="path1980-8"
       cx="141.37692"
       cy="98.457672"
       r="3.0083802" />
    <circle
       style="fill:#ffffff;fill-opacity:1;stroke:none;stroke-width:0.963999;stroke-linecap:round;stroke-linejoin:round;stroke-miterlimit:4;stroke-dasharray:none;stroke-opacity:1"
       id="path1980-0"
       cx="136.81076"
       cy="96.259193"
       r="3.0083802" />
  </g>
</svg>
