<?xml version="1.0" encoding="UTF-8" standalone="no"?>
<svg
   xmlns="http://www.w3.org/2000/svg"
   id="svg1703"
   version="1.1"
   viewBox="0 0 80 110"
   height="110mm"
   width="80mm">
  <defs
     id="defs1699" />
  <g
     transform="matrix(1.7837095,0,0,1.7837095,-96.406929,-15.736745)"
     id="g2512">
    <rect
       ry="0"
       y="35.377598"
       x="62.351933"
       height="25.062309"
       width="28.524376"
       id="rect1673-4"
       style="fill:#8f4334;fill-opacity:1;stroke:none;stroke-width:1.00289;stroke-linecap:round;stroke-linejoin:round;stroke-miterlimit:4;stroke-dasharray:none;stroke-opacity:1" />
    <path
       id="path898-7-2-99-9"
       style="fill:#67aaa4;fill-opacity:1;stroke:none;stroke-width:0.264583px;stroke-linecap:butt;stroke-linejoin:miter;stroke-opacity:1"
       d="m 67.925028,54.875209 c -13.27981,0 -13.89256,10.90961 -13.87616,14.849621 l 0.008,0.76481 h 0.003 44.77403 0.003 c 0,0 0.008,-0.305202 0.008,-0.76481 0.0164,-3.940011 -0.59686,-14.849621 -13.876681,-14.849621 -2.86606,0 -5.69333,0.0306 -8.52144,0.0605 -2.8281,-0.0299 -5.65536,-0.0605 -8.52143,-0.0605 z" />
    <ellipse
       style="fill:#f5c88a;fill-opacity:1;stroke-width:5.30315;stroke-linecap:round;stroke-linejoin:round;stroke-miterlimit:10"
       id="path876-4-4-6-93-7"
       cx="59.521282"
       cy="40.943699"
       rx="3.1799662"
       ry="4.6862159"
       transform="matrix(0.99866142,-0.05172389,0.1311757,0.99135914,0,0)" />
    <ellipse
       transform="matrix(-0.99866142,-0.05172389,-0.1311757,0.99135914,0,0)"
       ry="4.6862159"
       rx="3.1799662"
       cy="32.993973"
       cx="-92.847115"
       id="path876-4-8-3-3"
       style="fill:#f5c88a;fill-opacity:1;stroke-width:5.30315;stroke-linecap:round;stroke-linejoin:round;stroke-miterlimit:10" />
    <path
       id="path896-3-9-7-1"
       style="fill:#e8bb78;fill-opacity:1;stroke:none;stroke-width:0.264583px;stroke-linecap:butt;stroke-linejoin:miter;stroke-opacity:1"
       d="m 70.523618,48.811989 c 0,0 0.0114,0.20593 0.019,0.32041 l -0.123,0.003 c 0,0 0.15936,1.30651 0.0791,2.64636 -0.0937,0.87413 -0.28983,1.736989 -0.678,2.267029 -0.38253,0.522399 -1.75749,0.82786 -1.75749,0.82786 0,0 0.005,0.0808 0.005,0.116279 -5e-5,0 -0.004,0 -0.004,0 0,0 -0.29168,5.353791 8.3199,5.35146 0.0214,0 0.0408,-0.003 0.062,-0.003 0.0212,8.2e-5 0.0406,0.003 0.062,0.003 8.61158,0.003 8.3199,-5.35146 8.3199,-5.35146 0,0 -0.004,0 -0.004,0 0,-0.0355 0.005,-0.116279 0.005,-0.116279 0,0 -1.374431,-0.305461 -1.756971,-0.82786 -0.38708,-0.528579 -0.583478,-1.38816 -0.677458,-2.259801 -0.0813,-1.342369 0.0786,-2.653588 0.0786,-2.653588 l -0.12301,-0.003 c 0.008,-0.11448 0.019,-0.32041 0.019,-0.32041 l -5.922641,0.16021 z" />
    <rect
       style="fill:#f7d4a3;fill-opacity:1;stroke:none;stroke-width:6.44692;stroke-linecap:round;stroke-linejoin:round;stroke-miterlimit:4;stroke-dasharray:none;stroke-opacity:1"
       id="rect1019-1-7-0"
       width="25.697834"
       height="33.296532"
       x="63.754459"
       y="18.592686"
       ry="12.406159" />
    <path
       style="fill:#8f4334;fill-opacity:1;stroke:none;stroke-width:0.16377px;stroke-linecap:butt;stroke-linejoin:miter;stroke-opacity:1"
       d="m 62.440028,37.089788 c 0.33271,-6.07532 7.58273,-13.70328 13.2057,-12.49714 -0.973593,5.58103 12.547589,3.196397 15.34315,14.56949 0,0 2.93357,-22.993 -15.43532,-22.97951 -15.38981,0.0113 -13.11353,20.90716 -13.11353,20.90716 z"
       id="path1741" />
    <circle
       style="fill:#ffffff;fill-opacity:1;stroke:none;stroke-width:1.1494;stroke-linecap:round;stroke-linejoin:round;stroke-miterlimit:4;stroke-dasharray:none;stroke-opacity:1"
       id="path1743"
       cx="68.433167"
       cy="55.353485"
       r="0.92673695" />
    <circle
       r="0.92673695"
       cy="56.938023"
       cx="69.399231"
       id="path1743-5"
       style="fill:#ffffff;fill-opacity:1;stroke:none;stroke-width:1.1494;stroke-linecap:round;stroke-linejoin:round;stroke-miterlimit:4;stroke-dasharray:none;stroke-opacity:1" />
    <circle
       r="0.92673695"
       cy="58.432831"
       cx="70.475525"
       id="path1743-6"
       style="fill:#ffffff;fill-opacity:1;stroke:none;stroke-width:1.1494;stroke-linecap:round;stroke-linejoin:round;stroke-miterlimit:4;stroke-dasharray:none;stroke-opacity:1" />
    <circle
       r="0.92673695"
       cy="59.44931"
       cx="72.03009"
       id="path1743-7"
       style="fill:#ffffff;fill-opacity:1;stroke:none;stroke-width:1.1494;stroke-linecap:round;stroke-linejoin:round;stroke-miterlimit:4;stroke-dasharray:none;stroke-opacity:1" />
    <circle
       r="0.92673695"
       cy="60.166782"
       cx="73.704285"
       id="path1743-8"
       style="fill:#ffffff;fill-opacity:1;stroke:none;stroke-width:1.1494;stroke-linecap:round;stroke-linejoin:round;stroke-miterlimit:4;stroke-dasharray:none;stroke-opacity:1" />
    <circle
       r="0.92673695"
       cy="60.226593"
       cx="75.498108"
       id="path1743-0"
       style="fill:#ffffff;fill-opacity:1;stroke:none;stroke-width:1.1494;stroke-linecap:round;stroke-linejoin:round;stroke-miterlimit:4;stroke-dasharray:none;stroke-opacity:1" />
    <circle
       r="0.92673695"
       cy="55.338531"
       cx="-84.352112"
       id="path1743-65"
       style="fill:#ffffff;fill-opacity:1;stroke:none;stroke-width:1.1494;stroke-linecap:round;stroke-linejoin:round;stroke-miterlimit:4;stroke-dasharray:none;stroke-opacity:1"
       transform="scale(-1,1)" />
    <circle
       style="fill:#ffffff;fill-opacity:1;stroke:none;stroke-width:1.1494;stroke-linecap:round;stroke-linejoin:round;stroke-miterlimit:4;stroke-dasharray:none;stroke-opacity:1"
       id="path1743-5-7"
       cx="-83.386047"
       cy="56.923069"
       r="0.92673695"
       transform="scale(-1,1)" />
    <circle
       style="fill:#ffffff;fill-opacity:1;stroke:none;stroke-width:1.1494;stroke-linecap:round;stroke-linejoin:round;stroke-miterlimit:4;stroke-dasharray:none;stroke-opacity:1"
       id="path1743-6-3"
       cx="-82.309753"
       cy="58.417877"
       r="0.92673695"
       transform="scale(-1,1)" />
    <circle
       style="fill:#ffffff;fill-opacity:1;stroke:none;stroke-width:1.1494;stroke-linecap:round;stroke-linejoin:round;stroke-miterlimit:4;stroke-dasharray:none;stroke-opacity:1"
       id="path1743-7-4"
       cx="-80.755188"
       cy="59.434357"
       r="0.92673695"
       transform="scale(-1,1)" />
    <circle
       style="fill:#ffffff;fill-opacity:1;stroke:none;stroke-width:1.1494;stroke-linecap:round;stroke-linejoin:round;stroke-miterlimit:4;stroke-dasharray:none;stroke-opacity:1"
       id="path1743-8-3"
       cx="-79.080994"
       cy="60.151829"
       r="0.92673695"
       transform="scale(-1,1)" />
    <circle
       style="fill:#ffffff;fill-opacity:1;stroke:none;stroke-width:1.1494;stroke-linecap:round;stroke-linejoin:round;stroke-miterlimit:4;stroke-dasharray:none;stroke-opacity:1"
       id="path1743-0-0"
       cx="-77.28717"
       cy="60.211643"
       r="0.92673695"
       transform="scale(-1,1)" />
  </g>
</svg>
