<?xml version="1.0" encoding="UTF-8" standalone="no"?>
<svg
   xmlns="http://www.w3.org/2000/svg"
   width="80mm"
   height="110mm"
   viewBox="0 0 80 110"
   version="1.1"
   id="svg1703">
  <defs
     id="defs1699" />
  <path
     d="m 24.751567,82.144683 c -23.6873297,0 -24.78029968,19.459587 -24.75104968036,26.487417 l 0.0143000004,1.3642 h 0.005 79.86386968 0.005 c 0,0 0.0143,-0.54439 0.0143,-1.3642 0.0292,-7.02783 -1.06463,-26.487417 -24.75197,-26.487417 -5.11222,0 -10.15525,0.0546 -15.19978,0.10791 -5.04451,-0.0533 -10.08752,-0.10791 -15.19976,-0.10791 z"
     style="fill:#57585a;fill-opacity:1;stroke:none;stroke-width:0.471939px;stroke-linecap:butt;stroke-linejoin:miter;stroke-opacity:1"
     id="path898-7-2-3" />
  <ellipse
     transform="matrix(0.99866142,-0.05172389,0.1311757,0.99135914,0,0)"
     ry="8.3588495"
     rx="5.6721373"
     cy="52.263321"
     cx="12.360597"
     id="path876-4-4-6-2"
     style="fill:#73615b;fill-opacity:1;stroke-width:9.45928;stroke-linecap:round;stroke-linejoin:round;stroke-miterlimit:10" />
  <ellipse
     style="fill:#73615b;fill-opacity:1;stroke-width:9.45928;stroke-linecap:round;stroke-linejoin:round;stroke-miterlimit:10"
     id="path876-4-8-6"
     cx="-67.662292"
     cy="48.08823"
     rx="5.6721373"
     ry="8.3588495"
     transform="matrix(-0.99866142,-0.05172389,-0.1311757,0.99135914,0,0)" />
  <path
     d="m 29.386697,71.329653 c 0,0 0.0203,0.36732 0.0339,0.57152 l -0.2194,0.005 c 0,0 0.28425,2.33044 0.14109,4.72034 -0.16713,1.5592 -0.51697,3.09829 -1.20935,4.04373 -0.68232,0.93181 -3.13485,1.47666 -3.13485,1.47666 0,0 0.009,0.14412 0.009,0.20741 -8e-5,0 -0.007,0 -0.007,0 0,0 -0.52027,9.54961 14.84029,9.54545 0.0382,0 0.0728,-0.005 0.11059,-0.005 0.0378,1.4e-4 0.0724,0.005 0.11059,0.005 15.36056,0.005 14.84029,-9.54545 14.84029,-9.54545 0,0 -0.007,0 -0.007,0 0,-0.0633 0.009,-0.20741 0.009,-0.20741 0,0 -2.4516,-0.54485 -3.13394,-1.47666 -0.69042,-0.94284 -1.04076,-2.47608 -1.2084,-4.03083 -0.14501,-2.3944 0.1402,-4.73324 0.1402,-4.73324 l -0.21941,-0.005 c 0.0143,-0.2042 0.0339,-0.57152 0.0339,-0.57152 l -10.56427,0.28577 z"
     style="fill:#73615b;fill-opacity:1;stroke:none;stroke-width:0.471939px;stroke-linecap:butt;stroke-linejoin:miter;stroke-opacity:1"
     id="path896-3-9-94" />
  <rect
     ry="22.12899"
     y="17.427313"
     x="17.31234"
     height="59.391354"
     width="45.837482"
     id="rect1019-1-1"
     style="fill:#847069;fill-opacity:1;stroke:none;stroke-width:11.4994;stroke-linecap:round;stroke-linejoin:round;stroke-miterlimit:4;stroke-dasharray:none;stroke-opacity:1" />
  <rect
     style="fill:#362418;fill-opacity:1;stroke:none;stroke-width:10.1955;stroke-linecap:round;stroke-linejoin:round;stroke-miterlimit:4;stroke-dasharray:none"
     id="rect936-7-4-3"
     width="9.6221838"
     height="1.3912936"
     x="25.586601"
     y="40.316536"
     ry="0.69564682" />
  <circle
     style="fill:#352105;fill-opacity:1;stroke:none;stroke-width:14.0336;stroke-linecap:round;stroke-linejoin:round;stroke-miterlimit:10"
     id="path938-5-8-7"
     cx="31.91494"
     cy="46.582817"
     r="2.5538332" />
  <circle
     style="fill:#fcfcfe;fill-opacity:1;stroke:none;stroke-width:14.0336;stroke-linecap:round;stroke-linejoin:round;stroke-miterlimit:10"
     id="path940-54-8-8"
     cx="33.381313"
     cy="45.841415"
     r="0.42838487" />
  <circle
     cy="46.688202"
     cx="47.678524"
     id="path938-1-1-7-8"
     style="fill:#352105;fill-opacity:1;stroke:none;stroke-width:14.0336;stroke-linecap:round;stroke-linejoin:round;stroke-miterlimit:10"
     r="2.5538332" />
  <circle
     cy="45.9468"
     cx="49.144894"
     id="path940-5-8-1-3"
     style="fill:#fcfcfe;fill-opacity:1;stroke:none;stroke-width:14.0336;stroke-linecap:round;stroke-linejoin:round;stroke-miterlimit:10"
     r="0.42838487" />
  <rect
     ry="0.69564682"
     y="40.316536"
     x="43.761425"
     height="1.3912936"
     width="9.6221838"
     id="rect936-3-8-9-8"
     style="fill:#362418;fill-opacity:1;stroke:none;stroke-width:10.195;stroke-linecap:round;stroke-linejoin:round;stroke-miterlimit:10" />
  <path
     style="fill:#745651;fill-opacity:0.919355;stroke:#e5d8d2;stroke-width:1.36454;stroke-linecap:butt;stroke-linejoin:miter;stroke-miterlimit:4;stroke-dasharray:none;stroke-opacity:1"
     d="m 19.130217,40.094753 c 0.0107,-0.14822 42.44463,-1.60568 42.20213,-0.29097 -0.39159,2.12315 0.30514,13.10587 -3.15533,14.02707 -4.39197,1.16917 -9.76939,0.22175 -12.13274,0.19541 -3.87181,-0.0432 -2.77279,-9.7554 -6.63841,-9.53238 -3.72457,0.21487 -2.66148,8.16871 -5.75421,9.25 -3.58046,1.25181 -8.83138,1.05753 -11.13604,0.058 -2.68814,-1.16594 -3.63899,-10.18595 -3.3854,-13.70704 z"
     id="path1132" />
  <path
     style="fill:none;stroke:#e5d8d2;stroke-width:2.96988;stroke-linecap:round;stroke-linejoin:miter;stroke-miterlimit:4;stroke-dasharray:none;stroke-opacity:1"
     d="m 62.161827,40.777573 3.01659,-1.65915"
     id="path1134" />
  <path
     id="path1134-7"
     d="m 18.238727,41.661383 -3.0166,-1.65915"
     style="fill:none;stroke:#e5d8d2;stroke-width:2.96988;stroke-linecap:round;stroke-linejoin:miter;stroke-miterlimit:4;stroke-dasharray:none;stroke-opacity:1" />
  <g
     id="g1150"
     transform="matrix(1.7837099,0,0,1.5788664,-741.9512,-788.30485)">
    <path
       id="path1113"
       d="m 425.30742,524.77664 c 1.65998,-8.24785 1.47451,-18.92902 5.70579,-24.0965 1.43214,-1.74902 4.31827,0.71652 5.59711,2.3319 0.52478,1.17877 1.4437,-0.20412 1.90192,0.41857 4.31098,5.85843 11.86601,12.12358 13.74825,19.67183 z"
       style="fill:#616264;fill-opacity:1;stroke:none;stroke-width:0.252232px;stroke-linecap:butt;stroke-linejoin:miter;stroke-opacity:1" />
    <path
       id="path1113-3"
       style="fill:#ffffff;fill-opacity:1;stroke:none;stroke-width:0.252232px;stroke-linecap:butt;stroke-linejoin:miter;stroke-opacity:1"
       d="m 432.05541,510.41291 c -2.0356,-0.0101 -3.68696,0.59388 -4.82139,0.93895 -0.19396,1.19859 -0.36389,2.42583 -0.52319,3.6649 1.10238,-0.69844 4.25121,-2.75336 6.96484,-0.64389 -4.0047,3.07669 -5.23275,7.02673 -6.99115,10.31823 l 4.59221,-0.28525 c 1.97705,-8.63045 11.64966,-8.90019 17.46705,-8.5607 -0.7989,-1.15226 -1.67457,-2.27544 -2.58305,-3.375 -2.40224,-0.0911 -4.80239,-0.18918 -7.4312,0.46768 -2.45116,-1.93405 -4.72773,-2.51518 -6.67412,-2.52492 z" />
  </g>
  <path
     style="fill:none;stroke:#92807b;stroke-width:1.89965;stroke-linecap:round;stroke-linejoin:miter;stroke-miterlimit:4;stroke-dasharray:none;stroke-opacity:1"
     d="m 31.053057,64.231653 h 18.40132"
     id="path1152" />
  <rect
     style="fill:#ffffff;fill-opacity:1;stroke:none;stroke-width:1.77614;stroke-linecap:round;stroke-linejoin:round;stroke-miterlimit:4;stroke-dasharray:none;stroke-opacity:1"
     id="rect1526"
     width="18.13101"
     height="25.490065"
     x="30.604271"
     y="85.10273"
     ry="3.757443" />
  <path
     style="fill:#ffffff;fill-opacity:1;stroke:none;stroke-width:0.471939px;stroke-linecap:butt;stroke-linejoin:miter;stroke-opacity:1"
     d="m 51.765997,75.313533 -8.9663,9.97945 5.97259,8.95884 6.12933,-11.89716 z"
     id="path1166" />
  <path
     id="path1166-5"
     d="m 28.135477,75.313533 8.9663,9.97945 -5.97259,8.95884 -6.12933,-11.89716 z"
     style="fill:#ffffff;fill-opacity:1;stroke:none;stroke-width:0.471939px;stroke-linecap:butt;stroke-linejoin:miter;stroke-opacity:1" />
  <path
     d="m 55.151155,82.144855 c -1.21136,0 -2.418501,0.0034 -3.623035,0.0088 -3.708082,9.280848 -5.362167,18.561891 -7.877553,27.842751 h 8.498705 c 0.204753,-2.78089 0.506357,-6.333 0.876948,-8.66408 0.69346,-4.361872 2.954343,-12.916521 2.954343,-12.916521 l -1.999879,-2.63653 2.840654,-2.03812 0.95033,-1.475362 -0.107487,-0.04082 c -0.809239,-0.0508 -1.644031,-0.0801 -2.513026,-0.0801 z"
     style="fill:#6e6f72;fill-opacity:1;stroke:none;stroke-width:0.47194000000000003px;stroke-linecap:butt;stroke-linejoin:miter;stroke-opacity:1"
     id="path898-7-2-3-8" />
  <path
     d="m 24.751461,82.144855 c -0.869734,0 -1.705218,0.02921 -2.515092,0.0801 l -0.106971,0.04082 0.950847,1.475362 2.840653,2.03812 -1.999878,2.63653 c 0,0 2.260892,8.554649 2.954341,12.916521 0.3706,2.33108 0.672198,5.88319 0.876949,8.66408 h 8.498707 c -2.515388,-9.28086 -4.169473,-18.561903 -7.877556,-27.842751 -1.20419,-0.0054 -2.410979,-0.0088 -3.622,-0.0088 z"
     style="fill:#6e6f72;fill-opacity:1;stroke:none;stroke-width:0.47194000000000003px;stroke-linecap:butt;stroke-linejoin:miter;stroke-opacity:1"
     id="path898-7-2-3-0" />
</svg>
