<?xml version="1.0" encoding="UTF-8" standalone="no"?>
<svg
   xmlns="http://www.w3.org/2000/svg"
   width="80mm"
   height="110mm"
   viewBox="0 0 80 110"
   version="1.1"
   id="svg1703">
  <defs
     id="defs1699" />
  <g
     id="g2139"
     transform="matrix(1.783551,0,0,1.783551,-158.36119,-70.202425)">
    <path
       id="path898-7-2-5"
       style="fill:#52ab2f;fill-opacity:1;stroke:none;stroke-width:0.264583px;stroke-linecap:butt;stroke-linejoin:miter;stroke-opacity:1"
       d="m 102.6663,85.419246 c -13.279811,0 -13.892561,10.909621 -13.876161,14.849624 l 0.008,0.76481 h 0.003 44.774011 0.003 c 0,0 0.008,-0.3052 0.008,-0.76481 0.0164,-3.940003 -0.59686,-14.849624 -13.87668,-14.849624 -2.86606,0 -5.69333,0.0306 -8.52144,0.0605 -2.8281,-0.0299 -5.65536,-0.0605 -8.52143,-0.0605 z" />
    <path
       d="m 102.6623,85.419257 c -13.279811,0 -13.892561,10.90961 -13.876161,14.849623 l 0.008,0.76481 h 0.003 44.774021 0.003 c 0,0 0.008,-0.3052 0.008,-0.76481 0.0164,-3.940013 -0.59686,-14.849623 -13.87668,-14.849623 -2.86606,0 -5.69333,0.0306 -8.52144,0.0605 -2.82808,-0.0299 -5.65534,-0.0605 -8.52141,-0.0605 z"
       style="fill:#57585a;fill-opacity:1;stroke:none;stroke-width:0.264583px;stroke-linecap:butt;stroke-linejoin:miter;stroke-opacity:1"
       id="path898-7-2-3-7" />
    <path
       id="path896-3-9-9"
       style="fill:#e8bb78;fill-opacity:1;stroke:none;stroke-width:0.264583px;stroke-linecap:butt;stroke-linejoin:miter;stroke-opacity:1"
       d="m 105.26489,79.356036 c 0,0 0.0114,0.205931 0.019,0.320411 l -0.123,0.003 c 0,0 0.15936,1.30651 0.0791,2.64636 -0.0937,0.874131 -0.28983,1.73699 -0.678,2.26703 -0.38253,0.522401 -1.75749,0.82786 -1.75749,0.82786 0,0 0.005,0.0808 0.005,0.116281 -5e-5,0 -0.004,0 -0.004,0 0,0 -0.29168,5.353789 8.3199,5.35146 0.0214,0 0.0408,-0.003 0.062,-0.003 0.0212,7.9e-5 0.0406,0.003 0.062,0.003 8.61158,0.003 8.3199,-5.35146 8.3199,-5.35146 0,0 -0.004,0 -0.004,0 0,-0.0355 0.005,-0.116281 0.005,-0.116281 0,0 -1.37445,-0.305459 -1.75699,-0.82786 -0.38706,-0.52858 -0.58348,-1.388161 -0.67746,-2.259799 -0.0813,-1.342371 0.0786,-2.653591 0.0786,-2.653591 l -0.12301,-0.003 c 0.008,-0.11448 0.019,-0.320411 0.019,-0.320411 l -5.92264,0.160211 z" />
    <ellipse
       style="fill:#f5c88a;fill-opacity:1;stroke-width:5.30315;stroke-linecap:round;stroke-linejoin:round;stroke-miterlimit:10"
       id="path876-4-4-6-9"
       cx="90.052933"
       cy="73.34697"
       rx="3.1799662"
       ry="4.6862159"
       transform="matrix(0.99866142,-0.05172389,0.1311757,0.99135914,0,0)" />
    <ellipse
       transform="matrix(-0.99866142,-0.05172389,-0.1311757,0.99135914,0,0)"
       ry="4.6862159"
       rx="3.1799662"
       cy="61.791843"
       cx="-131.4176"
       id="path876-4-8-0"
       style="fill:#f5c88a;fill-opacity:1;stroke-width:5.30315;stroke-linecap:round;stroke-linejoin:round;stroke-miterlimit:10" />
    <rect
       style="fill:#f7d4a3;fill-opacity:1;stroke:none;stroke-width:6.44692;stroke-linecap:round;stroke-linejoin:round;stroke-miterlimit:4;stroke-dasharray:none;stroke-opacity:1"
       id="rect1019-1-3"
       width="25.697834"
       height="33.296532"
       x="98.495712"
       y="49.136814"
       ry="12.406159" />
    <path
       style="fill:#e1e1e1;fill-opacity:1;stroke:none;stroke-width:0.264583px;stroke-linecap:butt;stroke-linejoin:miter;stroke-opacity:1"
       d="m 104.20601,73.559227 c -0.21025,1.86406 2.33744,4.620509 2.49224,7.13499 0.052,0.845161 -1.03769,1.79982 -0.5372,2.482828 1.54448,2.107711 5.31105,1.506731 7.80521,0.727602 1.2396,-0.38722 2.34489,-1.374661 2.9836,-2.505419 1.4229,-2.519071 1.48471,-6.563781 1.34895,-8.574011 -0.14719,-2.17944 -13.66079,-3.09614 -14.0928,0.73401 z"
       id="path1315" />
    <path
       id="path1386-1"
       d="m 123.65759,66.219756 c -0.46503,-1.400739 -6.95316,-14.176719 -4.75225,-15.060779 2.47102,-1.37678 3.7034,2.06302 4.79342,4.94093 1.17304,3.09712 1.17145,10.0305 -0.0412,10.119849 z"
       style="fill:#e1e1e1;fill-opacity:1;stroke:none;stroke-width:0.247847px;stroke-linecap:butt;stroke-linejoin:miter;stroke-opacity:1" />
    <path
       style="fill:#e1e1e1;fill-opacity:1;stroke:none;stroke-width:0.247847px;stroke-linecap:butt;stroke-linejoin:miter;stroke-opacity:1"
       d="m 98.415699,66.219756 c 0.46503,-1.400739 6.953161,-14.176719 4.752251,-15.060779 -2.47102,-1.37678 -3.703401,2.06302 -4.793421,4.94093 -1.17304,3.09712 -1.17145,10.0305 0.0412,10.119849 z"
       id="path1386" />
    <rect
       style="fill:#ffffff;fill-opacity:1;stroke:none;stroke-width:0.995754;stroke-linecap:round;stroke-linejoin:round;stroke-miterlimit:4;stroke-dasharray:none;stroke-opacity:1"
       id="rect1526-5"
       width="10.164775"
       height="14.290478"
       x="105.94353"
       y="87.077606"
       ry="2.1065326" />
    <path
       style="fill:#ffffff;fill-opacity:1;stroke:none;stroke-width:0.264583px;stroke-linecap:butt;stroke-linejoin:miter;stroke-opacity:1"
       d="m 117.80738,81.589516 -5.02677,5.594771 3.34841,5.022591 3.43628,-6.6699 z"
       id="path1166-0" />
    <path
       style="fill:#6e6f72;fill-opacity:1;stroke:none;stroke-width:0.287354px;stroke-linecap:butt;stroke-linejoin:miter;stroke-opacity:1"
       d="m 118.46653,84.324808 c -2.77687,6.047844 -3.7516,10.683015 -5.61684,16.730862 l 5.4755,0.002 c 0,0 0.2638,-3.255731 0.54881,-4.863918 0.43347,-2.445854 1.76155,-7.25175 1.76155,-7.25175 l -1.19248,-1.480239 1.69379,-1.144328 0.56678,-0.828465 z"
       id="path1168-6" />
    <path
       id="path1166-5-4"
       d="m 104.55942,81.589516 5.02677,5.594771 -3.34841,5.022591 -3.43628,-6.6699 z"
       style="fill:#ffffff;fill-opacity:1;stroke:none;stroke-width:0.264583px;stroke-linecap:butt;stroke-linejoin:miter;stroke-opacity:1" />
    <path
       d="m 111.20045,87.166389 -4.31255,2.489852 v -4.979703 z"
       id="path1582"
       style="fill:#57585a;fill-opacity:1;stroke:none;stroke-width:0.780381;stroke-linecap:round;stroke-linejoin:round;stroke-miterlimit:4;stroke-dasharray:none;stroke-opacity:1" />
    <path
       transform="scale(-1,1)"
       style="fill:#57585a;fill-opacity:1;stroke:none;stroke-width:0.780381;stroke-linecap:round;stroke-linejoin:round;stroke-miterlimit:4;stroke-dasharray:none;stroke-opacity:1"
       id="path1582-8"
       d="m -111.20045,87.166389 -4.31254,2.489852 v -4.979703 z" />
    <path
       id="path1168-6-2"
       d="m 103.95071,84.324816 c 2.77687,6.051755 3.7516,10.689923 5.61684,16.741684 l -5.4755,0.002 c 0,0 -0.2638,-3.257839 -0.54881,-4.867067 -0.43347,-2.447435 -1.76155,-7.256437 -1.76155,-7.256437 l 1.19248,-1.481201 -1.69379,-1.145069 -0.56678,-0.828999 z"
       style="fill:#6e6f72;fill-opacity:1;stroke:none;stroke-width:0.287447px;stroke-linecap:butt;stroke-linejoin:miter;stroke-opacity:1" />
  </g>
</svg>
