<?xml version="1.0" encoding="UTF-8" standalone="no"?>
<svg
   xmlns="http://www.w3.org/2000/svg"
   width="80mm"
   height="110mm"
   viewBox="0 0 80 110"
   version="1.1"
   id="svg1703">
  <defs
     id="defs1699" />
  <g
     id="g1898"
     transform="matrix(1.7837099,0,0,1.7837099,-199.70231,-81.838404)">
    <path
       id="path898-7-2-39"
       style="fill:#2c76ca;fill-opacity:1;stroke:none;stroke-width:0.264583px;stroke-linecap:butt;stroke-linejoin:miter;stroke-opacity:1"
       d="m 125.83543,91.933707 c -13.27981,0 -13.89256,10.909623 -13.87616,14.849633 l 0.008,0.76481 h 0.003 44.77402 0.003 c 0,0 0.008,-0.3052 0.008,-0.76481 0.0164,-3.94001 -0.59686,-14.849633 -13.87668,-14.849633 -2.86606,0 -5.69333,0.0306 -8.52144,0.0605 -2.8281,-0.0299 -5.65536,-0.0605 -8.52143,-0.0605 z" />
    <ellipse
       style="fill:#7b4023;fill-opacity:1;stroke-width:5.30315;stroke-linecap:round;stroke-linejoin:round;stroke-miterlimit:10"
       id="path876-4-4-6-0"
       cx="112.23789"
       cy="81.075722"
       rx="3.1799662"
       ry="4.6862159"
       transform="matrix(0.99866142,-0.05172389,0.1311757,0.99135914,0,0)" />
    <ellipse
       transform="matrix(-0.99866142,-0.05172389,-0.1311757,0.99135914,0,0)"
       ry="4.6862159"
       rx="3.1799662"
       cy="67.116127"
       cx="-155.31717"
       id="path876-4-8-5"
       style="fill:#7b4023;fill-opacity:1;stroke-width:5.30315;stroke-linecap:round;stroke-linejoin:round;stroke-miterlimit:10" />
    <path
       id="path896-3-9-6"
       style="fill:#7b4023;fill-opacity:1;stroke:none;stroke-width:0.264583px;stroke-linecap:butt;stroke-linejoin:miter;stroke-opacity:1"
       d="m 128.43402,85.870497 c 0,0 0.0114,0.205928 0.019,0.32041 l -0.123,0.003 c 0,0 0.15936,1.30651 0.0791,2.64636 -0.0937,0.87413 -0.28983,1.736992 -0.678,2.267032 -0.38253,0.522399 -1.75749,0.82786 -1.75749,0.82786 0,0 0.005,0.0808 0.005,0.116279 -5e-5,0 -0.004,0 -0.004,0 0,0 -0.29168,5.353792 8.3199,5.351462 0.0214,0 0.0408,-0.003 0.062,-0.003 0.0212,8e-5 0.0406,0.003 0.062,0.003 8.61158,0.003 8.3199,-5.351462 8.3199,-5.351462 0,0 -0.004,0 -0.004,0 0,-0.0355 0.005,-0.116279 0.005,-0.116279 0,0 -1.37444,-0.305461 -1.75698,-0.82786 -0.38707,-0.528582 -0.58348,-1.38816 -0.67746,-2.259801 -0.0813,-1.342369 0.0786,-2.653591 0.0786,-2.653591 l -0.12301,-0.003 c 0.008,-0.114482 0.019,-0.32041 0.019,-0.32041 l -5.92264,0.160208 z" />
    <rect
       style="fill:#8e4a28;fill-opacity:1;stroke:none;stroke-width:6.44692;stroke-linecap:round;stroke-linejoin:round;stroke-miterlimit:4;stroke-dasharray:none;stroke-opacity:1"
       id="rect1019-1-36"
       width="25.697834"
       height="33.296532"
       x="121.66477"
       y="55.65126"
       ry="12.406159" />
    <path
       style="fill:#523224;fill-opacity:1;stroke:none;stroke-width:0.200224px;stroke-linecap:butt;stroke-linejoin:miter;stroke-opacity:1"
       d="m 122.0449,72.961336 c 1.99344,-0.0674 -0.81109,-4.35965 0.36199,-5.9728 7.18601,-9.88184 13.21647,0.49141 17.01341,-0.181 1.86068,-0.32951 3.77297,-0.45615 5.42981,-1.62895 1.53545,-1.08687 -0.15877,5.35336 1.53845,5.42983 5.16045,0.23252 1.66291,-23.60364 -0.75307,-16.94553 -0.73242,2.01846 -18.48902,-7.66623 -25.61061,5.88229 -1.38762,2.63987 -0.81322,13.512 2.02002,13.41616 z"
       id="path1277-7" />
  </g>
</svg>
