<?xml version="1.0" encoding="UTF-8" standalone="no"?>
<svg
   xmlns="http://www.w3.org/2000/svg"
   id="svg1703"
   version="1.1"
   viewBox="0 0 80 110"
   height="110mm"
   width="80mm">
  <defs
     id="defs1699" />
  <g
     id="layer1">
    <g
       id="g2778-2-3"
       transform="matrix(1.7858496,0,0,1.778775,-1265.9847,-914.76733)">
      <path
         id="path898-7-2-399-3-8"
         style="fill:#52ab2f;fill-opacity:1;stroke:none;stroke-width:0.264583px;stroke-linecap:butt;stroke-linejoin:miter;stroke-opacity:1"
         d="m 722.77417,560.49195 c -13.27981,0 -13.89256,10.90961 -13.87616,14.84962 l 0.008,0.76481 h 0.003 44.77401 0.003 c 0,0 0.008,-0.3052 0.008,-0.76481 0.0164,-3.94001 -0.59686,-14.84962 -13.87668,-14.84962 -2.86606,0 -5.69333,0.0306 -8.52144,0.0605 -2.8281,-0.0299 -5.65536,-0.0605 -8.52143,-0.0605 z" />
      <ellipse
         style="fill:#f5c88a;fill-opacity:1;stroke-width:5.30315;stroke-linecap:round;stroke-linejoin:round;stroke-miterlimit:10"
         id="path876-4-4-6-4-2-1"
         cx="644.24854"
         cy="581.47546"
         rx="3.1799662"
         ry="4.6862159"
         transform="matrix(0.99866142,-0.05172389,0.1311757,0.99135914,0,0)" />
      <ellipse
         transform="matrix(-0.99866142,-0.05172389,-0.1311757,0.99135914,0,0)"
         ry="4.6862159"
         rx="3.1799662"
         cy="505.56674"
         cx="-810.64709"
         id="path876-4-8-9-1-5"
         style="fill:#f5c88a;fill-opacity:1;stroke-width:5.30315;stroke-linecap:round;stroke-linejoin:round;stroke-miterlimit:10" />
      <path
         id="path896-3-9-1-1-3"
         style="fill:#e8bb78;fill-opacity:1;stroke:none;stroke-width:0.264583px;stroke-linecap:butt;stroke-linejoin:miter;stroke-opacity:1"
         d="m 725.37276,554.42873 c 0,0 0.0114,0.20593 0.019,0.32041 l -0.123,0.003 c 0,0 0.15936,1.30651 0.0791,2.64636 -0.0937,0.87413 -0.28983,1.73699 -0.678,2.26703 -0.38253,0.5224 -1.75749,0.82786 -1.75749,0.82786 0,0 0.005,0.0808 0.005,0.11628 -5e-5,0 -0.004,0 -0.004,0 0,0 -0.29168,5.35379 8.3199,5.35146 0.0214,0 0.0408,-0.003 0.062,-0.003 0.0212,8e-5 0.0406,0.003 0.062,0.003 8.61158,0.003 8.3199,-5.35146 8.3199,-5.35146 0,0 -0.004,0 -0.004,0 0,-0.0355 0.005,-0.11628 0.005,-0.11628 0,0 -1.37445,-0.30546 -1.75699,-0.82786 -0.38706,-0.52858 -0.58348,-1.38816 -0.67746,-2.2598 -0.0813,-1.34237 0.0786,-2.65359 0.0786,-2.65359 l -0.12301,-0.003 c 0.008,-0.11448 0.019,-0.32041 0.019,-0.32041 l -5.92264,0.16021 z" />
      <rect
         style="fill:#f7d4a3;fill-opacity:1;stroke:none;stroke-width:6.44692;stroke-linecap:round;stroke-linejoin:round;stroke-miterlimit:4;stroke-dasharray:none;stroke-opacity:1"
         id="rect1019-1-59-0-5"
         width="25.697834"
         height="33.296532"
         x="718.60352"
         y="524.20947"
         ry="12.406158" />
      <path
         id="path1191-5-9-6-4-4"
         d="m 717.25655,539.46606 c -0.0679,-10.75835 -0.68341,-15.19576 5.39402,-18.05115 8.65261,-4.06534 19.64394,1.13008 18.38811,2.41161 8.37454,3.30036 4.69907,11.843 4.82687,16.17764 -2.08554,0.2508 -1.4647,1.1019 -1.9685,3.24194 -1.01096,-4.40823 -0.46096,-13.89 -5.30232,-14.42146 -5.39289,4.68651 -11.38241,4.70548 -17.89374,4.71644 l -1.97523,9.32753 c -0.51398,-2.13269 0.6138,-3.14396 -1.46921,-3.40255 z"
         style="fill:#e08a13;fill-opacity:1;stroke:none;stroke-width:0.219787px;stroke-linecap:butt;stroke-linejoin:miter;stroke-opacity:1" />
    </g>
  </g>
</svg>
