<?xml version="1.0" encoding="UTF-8" standalone="no"?>
<svg
   xmlns="http://www.w3.org/2000/svg"
   width="80mm"
   height="110mm"
   viewBox="0 0 80 110"
   version="1.1"
   id="svg1703">
  <defs
     id="defs1699" />
  <g
     id="g2361"
     transform="translate(-99.080136,-66.932724)">
    <rect
       ry="0"
       y="93.414841"
       x="115.62755"
       height="44.25787"
       width="47.483398"
       id="rect1673"
       style="fill:#453028;fill-opacity:1;stroke:none;stroke-width:1.71949;stroke-linecap:round;stroke-linejoin:round;stroke-miterlimit:4;stroke-dasharray:none;stroke-opacity:1" />
    <path
       id="path898-7-2-99"
       style="fill:#d5a1a7;fill-opacity:1;stroke:none;stroke-width:0.471939px;stroke-linecap:butt;stroke-linejoin:miter;stroke-opacity:1"
       d="m 123.83173,149.0774 c -23.68733,0 -24.780297,19.45958 -24.751044,26.48742 l 0.01427,1.3642 h 0.0054 79.863864 0.005 c 0,0 0.0143,-0.54439 0.0143,-1.3642 0.0292,-7.02784 -1.06463,-26.48742 -24.75195,-26.48742 -5.11224,0 -10.15527,0.0546 -15.1998,0.10791 -5.04451,-0.0533 -10.08752,-0.10791 -15.19976,-0.10791 z" />
    <ellipse
       style="fill:#f5c88a;fill-opacity:1;stroke-width:9.45928;stroke-linecap:round;stroke-linejoin:round;stroke-miterlimit:10"
       id="path876-4-4-6-93"
       cx="102.09022"
       cy="124.46108"
       rx="5.6721373"
       ry="8.3588505"
       transform="matrix(0.99866142,-0.05172389,0.1311757,0.99135914,0,0)" />
    <ellipse
       transform="matrix(-0.99866142,-0.05172389,-0.1311757,0.99135914,0,0)"
       ry="8.3588505"
       rx="5.6721373"
       cy="110.00365"
       cx="-175.00797"
       id="path876-4-8-3"
       style="fill:#f5c88a;fill-opacity:1;stroke-width:9.45928;stroke-linecap:round;stroke-linejoin:round;stroke-miterlimit:10" />
    <path
       id="path896-3-9-7"
       style="fill:#7b4023;fill-opacity:1;stroke:none;stroke-width:0.471939px;stroke-linecap:butt;stroke-linejoin:miter;stroke-opacity:1"
       d="m 128.46686,138.26237 c 0,0 0.0203,0.36732 0.0339,0.57152 l -0.2194,0.005 c 0,0 0.28425,2.33044 0.14109,4.72034 -0.16713,1.5592 -0.51697,3.09829 -1.20935,4.04373 -0.68232,0.93181 -3.13485,1.47666 -3.13485,1.47666 0,0 0.009,0.14412 0.009,0.20741 -8e-5,0 -0.007,0 -0.007,0 0,0 -0.52027,9.54961 14.84029,9.54545 0.0382,0 0.0728,-0.005 0.11059,-0.005 0.0378,1.4e-4 0.0724,0.005 0.11059,0.005 15.36056,0.005 14.84029,-9.54545 14.84029,-9.54545 0,0 -0.007,0 -0.007,0 0,-0.0633 0.009,-0.20741 0.009,-0.20741 0,0 -2.4516,-0.54485 -3.13394,-1.47666 -0.69042,-0.94284 -1.04076,-2.47608 -1.20839,-4.03083 -0.14502,-2.3944 0.1402,-4.73324 0.1402,-4.73324 l -0.21942,-0.005 c 0.0143,-0.2042 0.0339,-0.57152 0.0339,-0.57152 l -10.56427,0.28577 z" />
    <rect
       style="fill:#8e4a28;fill-opacity:1;stroke:none;stroke-width:11.4994;stroke-linecap:round;stroke-linejoin:round;stroke-miterlimit:4;stroke-dasharray:none;stroke-opacity:1"
       id="rect1019-1-7"
       width="45.837482"
       height="59.391357"
       x="116.39263"
       y="84.359985"
       ry="22.12899" />
    <path
       style="fill:#634439;fill-opacity:1;stroke:none;stroke-width:0.445339px;stroke-linecap:butt;stroke-linejoin:miter;stroke-opacity:1"
       d="m 116.88059,139.83166 c 4.36321,-16.16583 -8.67966,-36.67267 11.28739,-49.761815 6.72583,7.598747 14.82004,13.671245 28.94487,13.017565 3.78965,12.74354 4.58807,24.66101 3.93902,36.16681 37.43877,-19.56788 -5.22911,-84.848713 -36.92992,-56.734534 -39.080275,19.253184 -7.24136,57.311974 -7.24136,57.311974 z"
       id="path1659-6" />
  </g>
</svg>
