<?xml version="1.0" encoding="UTF-8" standalone="no"?>
<svg
   xmlns="http://www.w3.org/2000/svg"
   id="svg1703"
   version="1.1"
   viewBox="0 0 80 110"
   height="110mm"
   width="80mm">
  <defs
     id="defs1699" />
  <g
     id="g3459-8-0"
     transform="matrix(1.7858496,0,0,1.778775,-1145.5631,-915.61158)">
    <rect
       style="fill:#362418;fill-opacity:1;stroke:none;stroke-width:5.71587;stroke-linecap:round;stroke-linejoin:round;stroke-miterlimit:4;stroke-dasharray:none"
       id="rect936-7-4-1-9-3"
       width="5.3944778"
       height="0.77999997"
       x="655.81116"
       y="536.75568"
       ry="0.38999999" />
    <path
       id="path938-5-8-2-9-2"
       style="fill:#352105;fill-opacity:1;stroke:none;stroke-width:7.86765;stroke-linecap:round;stroke-linejoin:round;stroke-miterlimit:10"
       d="m 657.9272,541.02979 a 1.4318106,1.4317536 0 0 1 1.43181,-1.43176 1.4318106,1.4317536 0 0 1 1.43181,1.43176 h -1.43181 z" />
    <circle
       style="fill:#fcfcfe;fill-opacity:1;stroke:none;stroke-width:7.86765;stroke-linecap:round;stroke-linejoin:round;stroke-miterlimit:10"
       id="path940-54-8-46-4-6"
       cx="660.18109"
       cy="540.61414"
       r="0.2401651" />
    <path
       id="path938-1-1-7-7-5-9"
       style="fill:#352105;fill-opacity:1;stroke:none;stroke-width:7.86765;stroke-linecap:round;stroke-linejoin:round;stroke-miterlimit:10"
       d="m 666.76478,541.08887 a 1.4317536,1.4317536 0 0 1 1.43175,-1.43176 1.4317536,1.4317536 0 0 1 1.43176,1.43176 h -1.43176 z" />
    <circle
       cy="540.67322"
       cx="669.01862"
       id="path940-5-8-1-5-0-4"
       style="fill:#fcfcfe;fill-opacity:1;stroke:none;stroke-width:7.86765;stroke-linecap:round;stroke-linejoin:round;stroke-miterlimit:10"
       r="0.2401651" />
    <rect
       ry="0.38999999"
       y="536.75568"
       x="666.00049"
       height="0.77999997"
       width="5.3944778"
       id="rect936-3-8-9-50-6-1"
       style="fill:#362418;fill-opacity:1;stroke:none;stroke-width:5.71563;stroke-linecap:round;stroke-linejoin:round;stroke-miterlimit:10" />
    <path
       id="path2591-0-8-3"
       d="m 660.27064,543.68305 c -1.04709,0.26716 -1.78819,1.60502 -1.36059,2.61526 1.22685,1.21716 2.02172,-0.89296 1.31822,-1.85758 -0.0462,-0.24974 -0.0619,-0.51903 0.0424,-0.75768 z"
       style="fill:#b6e3e1;fill-opacity:1;stroke:none;stroke-width:0.504595px;stroke-linecap:butt;stroke-linejoin:miter;stroke-opacity:1" />
    <path
       d="m 663.91659,551.66348 a 2.5300782,1.372526 0 0 0 -2.42361,0.99115 6.9222808,6.9222808 0 0 0 0.0697,0.0222 c 1.54181,-0.15841 3.12386,-0.15589 4.75631,0.0124 a 6.9222808,6.9222808 0 0 0 0.0382,-0.0119 2.5300782,1.372526 0 0 0 -2.44067,-1.01389 z"
       style="fill:#c15c26;fill-opacity:1;stroke:none;stroke-width:7.86799;stroke-linecap:round;stroke-linejoin:round;stroke-miterlimit:4;stroke-dasharray:none;stroke-opacity:1"
       id="path1080-31-0-5-9-9-0-7" />
    <g
       transform="matrix(1.0185287,0,0,-1.0185287,239.44318,1020.0385)"
       id="g1320-8-8-1-9-8">
      <path
         id="path1080-31-0-5-82-9-8"
         style="fill:#5d3f16;fill-opacity:1;stroke:none;stroke-width:7.86799;stroke-linecap:round;stroke-linejoin:round;stroke-miterlimit:4;stroke-dasharray:none;stroke-opacity:1"
         d="m 411.26377,457.43814 c 0.78887,2.17764 3.43863,4.7523 5.67814,4.76457 2.24116,-0.0108 4.80277,-2.58558 5.57337,-4.76457 -3.28247,1.90753 -7.30518,2.02562 -11.25151,0 z" />
    </g>
    <path
       id="path1080-31-0-5-9-9-0-3-3"
       style="fill:#c15c26;fill-opacity:1;stroke:none;stroke-width:8.28679;stroke-linecap:round;stroke-linejoin:round;stroke-miterlimit:4;stroke-dasharray:none;stroke-opacity:1"
       d="m 664.18048,551.77461 c -1.02564,0.0191 -2.0918,0.34496 -2.37003,1.09793 1.69618,-0.32347 3.05275,-0.34752 4.7475,-0.008 -0.4205,-0.78933 -1.48177,-1.05059 -2.37754,-1.08944 z" />
    <path
       style="fill:#b6e3e1;fill-opacity:1;stroke:none;stroke-width:0.504595px;stroke-linecap:butt;stroke-linejoin:miter;stroke-opacity:1"
       d="m 658.09352,541.3628 c -1.04709,0.26716 -1.78819,1.60502 -1.36059,2.61526 1.22685,1.21716 2.02172,-0.89296 1.31822,-1.85758 -0.0462,-0.24974 -0.0619,-0.51903 0.0424,-0.75768 z"
       id="path2591-0-8-1-8" />
    <path
       style="fill:#b6e3e1;fill-opacity:1;stroke:none;stroke-width:0.504595px;stroke-linecap:butt;stroke-linejoin:miter;stroke-opacity:1"
       d="m 666.84391,541.39049 c -1.04709,0.26716 -1.78819,1.60502 -1.36059,2.61526 1.22685,1.21716 2.02172,-0.89296 1.31822,-1.85758 -0.0462,-0.24974 -0.0619,-0.51903 0.0424,-0.75768 z"
       id="path2591-0-8-8-1" />
    <path
       style="fill:#b6e3e1;fill-opacity:1;stroke:none;stroke-width:0.504595px;stroke-linecap:butt;stroke-linejoin:miter;stroke-opacity:1"
       d="m 669.44688,543.49502 c -1.04709,0.26716 -1.78819,1.60502 -1.36059,2.61526 1.22685,1.21716 2.02172,-0.89296 1.31822,-1.85758 -0.0462,-0.24974 -0.0619,-0.51903 0.0424,-0.75768 z"
       id="path2591-0-8-83-5" />
  </g>
</svg>
